<svg width="50" height="44" viewBox="0 0 50 44" fill="none" xmlns="http://www.w3.org/2000/svg">
<rect x="17" y="11" width="16.6667" height="3.66667" rx="1.83333" fill="#eeb55a"/>
<rect x="19" y="23" width="13" height="4" rx="2" fill="#eeb55a"/>
<rect x="13" y="17" width="25" height="3.66667" rx="1.83333" fill="#eeb55a"/>
<path d="M42.6667 28.3333C42.6667 29.3205 42.2608 30.2673 41.5385 30.9653C40.8161 31.6634 39.8364 32.0556 38.8148 32.0556H16.1079C15.8486 32.0556 15.5995 32.1563 15.413 32.3365L9.6949 37.8621C9.06017 38.4755 8 38.0257 8 37.143V9.72222C8 8.73503 8.40582 7.78827 9.12818 7.09021C9.85054 6.39216 10.8303 6 11.8519 6H38.8148C39.8364 6 40.8161 6.39216 41.5385 7.09021C42.2608 7.78827 42.6667 8.73503 42.6667 9.72222V28.3333Z" stroke="#eeb55a" stroke-width="3" stroke-linecap="round" stroke-linejoin="round"/>
</svg>
